# xmcd
#
# Track frame offsets: 
#        150
#        57540
#        77912
#        118202
#        145734
#        165937
#        203666
#        235073
#        303235
#
# Disc length: 4406 seconds
#
# Revision: 0
# Processed by: cddbd v1.5.2PL0 Copyright (c) Steve Scherf et al.
# Submitted via: ExactAudioCopyFreeDBPlugin 1.0
#
DISCID=72113409
DTITLE=Jimmy Smith - The Best of Jimmy Smith, 1956-1962 [Real Gone Jaz
DTITLE=z]
DYEAR=2016
DGENRE=Rhythm and Blues
TTITLE0=Groovy Date
TTITLE1=Summertime
TTITLE2=Yardbird Suite
TTITLE3=East of the Sun
TTITLE4=The Very Thought of You
TTITLE5=Billie's Bounce
TTITLE6=Bun's a Plenty
TTITLE7=Au Privave
TTITLE8=Blues After All
EXTD=
EXTT0=
EXTT1=
EXTT2=
EXTT3=
EXTT4=
EXTT5=
EXTT6=
EXTT7=
EXTT8=
PLAYORDER=
